# xmcd
#
# Track frame offsets:
#	150
#	11175
#	26095
#	44375
#	60375
#	83510
#	108145
#	125270
#	135875
#	150625
#
# Disc length: 2179 seconds
#
# Revision: 1
# Processed by: cddbd v1.5.2PL0 Copyright (c) Steve Scherf et al.
# Submitted via: audiograbber 1.83.01
#
DISCID=6d08810a
DTITLE=Danny Adler - Hometowns and High Iron
DYEAR=1989
DGENRE=Blues
TTITLE0=Buffalo
TTITLE1=Steel Trucking Man
TTITLE2=Paranoia Pennsylvania
TTITLE3=Bucyrus
TTITLE4=Oneida Tennessee
TTITLE5=Ashtabula
TTITLE6=Steam Age
TTITLE7=Michigan Kazoo
TTITLE8=Calling In The Flag
TTITLE9=Sexy Seventh Grader
EXTD=
EXTT0=
EXTT1=
EXTT2=
EXTT3=
EXTT4=
EXTT5=
EXTT6=
EXTT7=
EXTT8=
EXTT9=
PLAYORDER=
